<?xml version="1.0" encoding="UTF-8" standalone="no"?>
<!-- Created with Inkscape (http://www.inkscape.org/) -->

<svg
   xmlns:dc="http://purl.org/dc/elements/1.1/"
   xmlns:cc="http://creativecommons.org/ns#"
   xmlns:rdf="http://www.w3.org/1999/02/22-rdf-syntax-ns#"
   xmlns:svg="http://www.w3.org/2000/svg"
   xmlns="http://www.w3.org/2000/svg"
   xmlns:sodipodi="http://sodipodi.sourceforge.net/DTD/sodipodi-0.dtd"
   xmlns:inkscape="http://www.inkscape.org/namespaces/inkscape"
   width="128"
   height="128"
   id="svg2"
   version="1.1"
   inkscape:version="0.48.5 r10040"
   sodipodi:docname="frameRed.svg">
  <defs
     id="defs4" />
  <sodipodi:namedview
     id="base"
     pagecolor="#ffffff"
     bordercolor="#666666"
     borderopacity="1.0"
     inkscape:pageopacity="0.0"
     inkscape:pageshadow="2"
     inkscape:zoom="3.959798"
     inkscape:cx="140.46605"
     inkscape:cy="59.321209"
     inkscape:document-units="px"
     inkscape:current-layer="layer1"
     showgrid="false"
     inkscape:window-width="1920"
     inkscape:window-height="1018"
     inkscape:window-x="-8"
     inkscape:window-y="-8"
     inkscape:window-maximized="1" />
  <metadata
     id="metadata7">
    <rdf:RDF>
      <cc:Work
         rdf:about="">
        <dc:format>image/svg+xml</dc:format>
        <dc:type
           rdf:resource="http://purl.org/dc/dcmitype/StillImage" />
        <dc:title></dc:title>
      </cc:Work>
    </rdf:RDF>
  </metadata>
  <g
     inkscape:label="Layer 1"
     inkscape:groupmode="layer"
     id="layer1"
     transform="translate(0,-924.36218)">
    <path
       style="fill:#ffffff;fill-opacity:1;stroke:#ffffff;stroke-opacity:1"
       d="m 120,1012.3622 c 0,-5.3333 0,-10.6667 0,-16.00001 -2.66666,2.66667 -5.33333,5.33331 -8,8.00001 2.66667,2.6667 5.33334,5.3333 8,8 z m 0,-32.00001 c 0,-5.33333 0,-10.66666 0,-16 -2.66666,2.66667 -5.33333,5.33334 -8,8 2.66667,2.66667 5.33334,5.33334 8,8 z M 8,1012.3622 c 0,-5.3333 0,-10.6667 0,-16.00001 2.666666,2.66667 5.333335,5.33331 8.000001,8.00001 -2.666666,2.6667 -5.333335,5.3333 -8.000001,8 z m 0,-32.00001 c 0,-5.33333 0,-10.66666 0,-16 2.666666,2.66667 5.333335,5.33334 8.000001,8 -2.666666,2.66667 -5.333335,5.33334 -8.000001,8 z m 80,64.00001 c -5.333332,0 -10.666667,0 -15.999998,0 2.666665,-2.6667 5.333331,-5.3333 7.999997,-8 2.666666,2.6667 5.333335,5.3333 8.000001,8 z m -32,0 c -5.333334,0 -10.666666,0 -16.000001,0 2.666666,-2.6667 5.333335,-5.3333 8.000001,-8 2.666666,2.6667 5.333335,5.3333 8,8 z M 88,932.36218 c -5.333332,0 -10.666667,0 -15.999998,0 2.666665,2.66666 5.333331,5.33333 7.999997,8 2.666666,-2.66667 5.333335,-5.33334 8.000001,-8 z m -32,0 c -5.333334,0 -10.666666,0 -16.000001,0 2.666666,2.66666 5.333335,5.33333 8.000001,8 2.666666,-2.66667 5.333335,-5.33334 8,-8 z m -56.0000005342461,-8 c 0,13.33333 0,26.66667 0,40 C 2.6666653,967.02885 5.3333342,969.69552 8,972.36218 c 0,-13.33333 0,-26.66667 0,-40 13.333332,0 26.666668,0 40,0 -2.771171,-2.58389 -5.442302,-5.81442 -8.27509,-8 -13.241638,0 -26.483273,0 -39.7249105342461,0 z M 48,932.36218 c 10.666666,0 21.333333,0 31.999999,0 -2.77117,-2.58389 -5.442302,-5.81442 -8.275089,-8 -5.241638,0 -10.483272,0 -15.72491,0 -2.666665,2.66667 -5.333334,5.33334 -8,8 z m 31.999999,0 c 13.333334,0 26.666671,0 40.000001,0 0,13.33333 0,26.66667 0,40 2.66667,-2.66666 5.33333,-5.33333 8,-8 0,-13.33333 0,-26.66667 0,-40 -13.33333,0 -26.66667,0 -40,0 -2.666666,2.66667 -5.333335,5.33334 -8.000001,8 z m 40.000001,40 c 0,10.66667 0,21.33334 0,32.00002 2.66667,-2.6667 5.33333,-5.33336 8,-8.00002 0,-5.33333 0,-10.66666 0,-16 -2.66667,-2.66666 -5.33333,-5.33333 -8,-8 z m 0,32.00002 c 0,13.3333 0,26.6666 0,40 -13.33333,0 -26.666667,0 -40.000001,0 2.771171,2.5839 5.442302,5.8144 8.27509,8 13.241641,0 26.483271,0 39.724911,0 0,-13.3334 0,-26.6667 0,-40 -2.66667,-2.6667 -5.33333,-5.3334 -8,-8 z m -40.000001,40 c -10.666666,0 -21.333333,0 -31.999999,0 2.77117,2.5839 5.442302,5.8144 8.275089,8 5.241638,0 10.483272,0 15.72491,0 2.666665,-2.6667 5.333334,-5.3334 8,-8 z m -31.999999,0 c -13.333332,0 -26.666668,0 -40,0 0,-13.3334 0,-26.6667 0,-40 -2.6666658,2.6666 -5.3333347,5.3333 -8.0000005342461,8 0,13.3333 0,26.6666 0,40 13.3333325342461,0 26.6666675342461,0 39.9999995342461,0 2.666666,-2.6667 5.333335,-5.3334 8.000001,-8 z m -40,-40 c 0,-10.66668 0,-21.33335 0,-32.00002 -2.6666658,2.66667 -5.3333347,5.33334 -8.0000005342461,8 0,5.33334 0,10.66667 0,16 C 2.6666653,999.02884 5.3333342,1001.6955 8,1004.3622 z"
       id="path3012-0-4-6-3"
       inkscape:connector-curvature="0" />
  </g>
</svg>
